<?xml version="1.0" encoding="utf-8"?>
<!DOCTYPE svg PUBLIC "-//W3C//DTD SVG 20010904//EN" "http://www.w3.org/TR/2001/REC-SVG-20010904/DTD/svg10.dtd">
<svg version="1.0" xmlns="http://www.w3.org/2000/svg" width="500px" height="500px" viewBox="2.50 0 500 500" preserveAspectRatio="xMidYMid meet">
 <g fill="#ff003f">
  <path d="M238.65 487.33 c-9.45 -0.50 -24.67 -2.34 -30.40 -3.62 -0.90 -0.23 -1.88 -0.38 -2.21 -0.38 -0.30 0 -1.21 -0.15 -2.01 -0.35 -0.78 -0.20 -2.34 -0.55 -3.44 -0.78 -3.69 -0.78 -5.73 -1.26 -9.55 -2.24 -4.30 -1.13 -6.08 -1.61 -8.29 -2.29 -0.55 -0.18 -1.68 -0.50 -2.51 -0.75 -0.83 -0.23 -1.91 -0.58 -2.39 -0.75 -0.48 -0.18 -1.38 -0.45 -2.01 -0.63 -0.63 -0.18 -1.41 -0.40 -1.76 -0.55 -0.33 -0.13 -1.98 -0.70 -3.64 -1.26 -1.66 -0.55 -3.12 -1.11 -3.24 -1.23 -0.15 -0.13 -0.45 -0.23 -0.68 -0.23 -0.25 0 -0.75 -0.15 -1.16 -0.35 -0.38 -0.20 -1.33 -0.60 -2.09 -0.90 -0.75 -0.30 -1.61 -0.63 -1.88 -0.75 -0.28 -0.10 -1.13 -0.45 -1.88 -0.75 -0.75 -0.28 -1.66 -0.65 -2.01 -0.80 -0.90 -0.40 -1.96 -0.85 -3.39 -1.46 -1.68 -0.73 -2.69 -1.21 -6.53 -3.01 -1.78 -0.85 -3.67 -1.71 -4.15 -1.93 -0.48 -0.23 -1.06 -0.50 -1.26 -0.60 -0.20 -0.10 -1.46 -0.75 -2.76 -1.43 -1.31 -0.70 -2.89 -1.53 -3.52 -1.91 -0.63 -0.35 -1.46 -0.80 -1.88 -1 -0.40 -0.20 -1.53 -0.83 -2.51 -1.41 -0.95 -0.55 -2.14 -1.21 -2.56 -1.43 -0.45 -0.23 -0.83 -0.50 -0.83 -0.63 0 -0.10 -0.15 -0.20 -0.30 -0.20 -0.18 0 -1.08 -0.48 -1.98 -1.08 -0.90 -0.58 -2.03 -1.28 -2.51 -1.53 -0.95 -0.55 -5.50 -3.44 -6.53 -4.17 -0.35 -0.25 -1.53 -1.06 -2.64 -1.81 -1.08 -0.73 -2.01 -1.41 -2.06 -1.51 -0.05 -0.13 -0.20 -0.20 -0.33 -0.20 -0.13 0 -0.43 -0.15 -0.65 -0.35 -0.25 -0.20 -2.49 -1.86 -4.97 -3.69 -2.49 -1.83 -4.57 -3.39 -4.65 -3.47 -0.08 -0.10 -1.31 -1.11 -2.76 -2.26 -1.46 -1.16 -2.76 -2.26 -2.91 -2.44 -0.15 -0.20 -0.40 -0.35 -0.55 -0.35 -0.15 0 -0.30 -0.10 -0.35 -0.23 -0.03 -0.13 -1.31 -1.28 -2.84 -2.59 -1.51 -1.28 -3.62 -3.14 -4.65 -4.09 -2.99 -2.79 -13.01 -12.84 -15.35 -15.42 -1.16 -1.28 -2.29 -2.54 -2.49 -2.76 -0.23 -0.23 -1.13 -1.26 -2.01 -2.29 -0.90 -1.03 -1.81 -2.03 -2.01 -2.26 -0.23 -0.23 -0.78 -0.93 -1.23 -1.58 -0.48 -0.65 -0.95 -1.18 -1.08 -1.18 -0.10 0 -0.20 -0.10 -0.20 -0.25 0 -0.13 -0.23 -0.50 -0.48 -0.80 -0.28 -0.33 -0.73 -0.83 -0.98 -1.16 -0.28 -0.30 -0.75 -0.95 -1.08 -1.43 -0.33 -0.48 -0.68 -0.88 -0.78 -0.88 -0.13 0 -0.20 -0.15 -0.20 -0.35 0 -0.20 -0.10 -0.40 -0.23 -0.45 -0.15 -0.03 -1.38 -1.61 -2.76 -3.47 -1.38 -1.86 -2.64 -3.52 -2.79 -3.69 -0.13 -0.18 -0.25 -0.40 -0.25 -0.55 0 -0.13 -0.08 -0.28 -0.18 -0.33 -0.38 -0.15 -3.34 -4.57 -3.34 -4.95 0 -0.13 -0.10 -0.28 -0.20 -0.33 -0.10 -0.03 -1.08 -1.43 -2.16 -3.09 -1.08 -1.66 -2.19 -3.32 -2.44 -3.69 -0.25 -0.38 -0.48 -0.75 -0.48 -0.83 0 -0.08 -0.30 -0.60 -0.68 -1.21 -0.93 -1.43 -1.28 -1.98 -1.51 -2.44 -0.15 -0.33 -2.76 -4.82 -3.34 -5.78 -0.13 -0.20 -1.03 -1.96 -2.01 -3.89 -0.95 -1.93 -2.16 -4.25 -2.61 -5.15 -1.13 -2.16 -4.67 -9.67 -4.67 -9.92 0 -0.08 -0.33 -0.83 -0.70 -1.68 -0.40 -0.88 -0.93 -2.09 -1.16 -2.71 -0.25 -0.63 -0.55 -1.33 -0.68 -1.58 -0.13 -0.23 -0.48 -1.08 -0.75 -1.88 -0.28 -0.78 -0.60 -1.61 -0.73 -1.86 -0.50 -0.90 -5.53 -15.63 -5.53 -16.18 0 -0.18 -0.15 -0.70 -0.35 -1.16 -0.20 -0.45 -0.55 -1.56 -0.78 -2.46 -0.25 -0.90 -0.58 -2.14 -0.75 -2.76 -0.93 -3.12 -1.73 -6.26 -2.26 -8.67 -0.23 -1.11 -0.58 -2.59 -0.78 -3.29 -0.20 -0.70 -0.35 -1.48 -0.35 -1.71 0 -0.25 -0.18 -1.26 -0.40 -2.26 -0.88 -4.07 -1.56 -7.94 -2.09 -11.96 -0.15 -1.03 -0.43 -3.12 -0.63 -4.65 -1.23 -9.14 -1.78 -18.24 -1.78 -29.77 0 -11.83 0.53 -20.57 1.76 -29.89 0.20 -1.46 0.48 -3.59 0.63 -4.77 0.40 -3.12 1.21 -7.81 2.16 -12.44 1.16 -5.63 1.18 -5.70 2.26 -9.97 0.20 -0.88 0.53 -2.14 0.73 -2.84 0.18 -0.68 0.53 -1.98 0.75 -2.89 0.40 -1.51 0.65 -2.36 1.51 -5.15 0.18 -0.55 0.53 -1.68 0.75 -2.51 0.25 -0.83 0.58 -1.91 0.75 -2.39 0.18 -0.48 0.45 -1.28 0.60 -1.76 0.18 -0.48 0.40 -1.21 0.53 -1.63 0.13 -0.40 0.45 -1.38 0.75 -2.14 0.85 -2.21 1.26 -3.29 1.73 -4.77 0.28 -0.75 0.58 -1.66 0.73 -2.01 0.13 -0.35 0.45 -1.13 0.68 -1.76 0.48 -1.21 0.83 -2.11 1.43 -3.52 0.20 -0.48 0.50 -1.16 0.65 -1.51 0.13 -0.35 0.48 -1.13 0.75 -1.76 0.28 -0.63 0.80 -1.81 1.18 -2.64 1.53 -3.47 4.17 -8.99 4.37 -9.17 0.08 -0.08 1.06 -1.91 2.16 -4.09 2.59 -5.10 2.69 -5.30 2.86 -5.45 0.08 -0.08 0.38 -0.58 0.65 -1.13 0.78 -1.58 2.24 -4.02 2.44 -4.09 0.13 -0.05 0.20 -0.18 0.20 -0.30 0 -0.30 1.83 -3.37 2.06 -3.47 0.13 -0.05 0.20 -0.20 0.20 -0.35 0 -0.30 1.78 -3.06 2.06 -3.17 0.13 -0.05 0.20 -0.20 0.20 -0.33 0 -0.28 1.06 -1.81 1.33 -1.93 0.10 -0.05 0.18 -0.20 0.18 -0.33 0 -0.15 0.20 -0.55 0.48 -0.93 0.25 -0.38 0.95 -1.43 1.56 -2.39 0.60 -0.93 1.18 -1.68 1.28 -1.68 0.10 0 0.20 -0.13 0.20 -0.28 0 -0.15 0.33 -0.70 0.75 -1.23 0.40 -0.53 0.75 -1 0.75 -1.08 0 -0.08 0.35 -0.53 0.75 -0.98 0.43 -0.45 0.75 -0.95 0.75 -1.13 0 -0.18 0.10 -0.33 0.23 -0.33 0.13 0 0.55 -0.50 0.95 -1.13 0.38 -0.63 0.78 -1.13 0.90 -1.13 0.10 0 0.18 -0.10 0.18 -0.23 0 -0.13 0.28 -0.55 0.60 -0.93 0.35 -0.40 1.71 -2.14 3.04 -3.87 1.33 -1.73 2.54 -3.19 2.66 -3.22 0.13 -0.05 0.23 -0.20 0.23 -0.30 0 -0.13 0.25 -0.50 0.55 -0.80 0.33 -0.33 1.16 -1.26 1.83 -2.06 0.70 -0.80 1.38 -1.61 1.56 -1.78 0.18 -0.18 1.08 -1.21 2.01 -2.31 2.29 -2.64 3.57 -3.97 9.55 -9.95 5.83 -5.85 7.51 -7.41 12.36 -11.61 0.30 -0.28 0.83 -0.73 1.13 -1 0.30 -0.28 1.26 -1.06 2.11 -1.76 0.85 -0.68 1.56 -1.33 1.56 -1.43 0 -0.13 0.18 -0.20 0.38 -0.20 0.20 0 0.38 -0.10 0.38 -0.20 0 -0.13 0.50 -0.58 1.11 -1 0.60 -0.43 1.46 -1.13 1.93 -1.53 0.48 -0.40 2.56 -1.98 4.62 -3.52 2.09 -1.53 3.89 -2.89 4.07 -3.04 0.18 -0.13 0.40 -0.25 0.55 -0.25 0.13 0 0.28 -0.08 0.33 -0.18 0.13 -0.28 3.69 -2.84 3.94 -2.84 0.13 0 0.28 -0.08 0.33 -0.20 0.10 -0.25 3.94 -2.81 4.22 -2.81 0.15 0 0.25 -0.10 0.25 -0.20 0 -0.13 0.30 -0.35 0.68 -0.53 0.40 -0.18 1.28 -0.70 2.01 -1.18 0.70 -0.48 1.41 -0.85 1.56 -0.85 0.15 0 0.28 -0.10 0.28 -0.23 0 -0.13 0.33 -0.35 0.75 -0.53 0.40 -0.18 0.75 -0.40 0.75 -0.50 0 -0.10 0.20 -0.25 0.45 -0.35 0.23 -0.08 0.65 -0.28 0.93 -0.45 0.28 -0.18 0.98 -0.63 1.58 -1 0.60 -0.40 1.18 -0.70 1.31 -0.70 0.13 0 0.38 -0.15 0.55 -0.30 0.18 -0.18 0.78 -0.55 1.33 -0.83 0.55 -0.28 1.83 -0.98 2.84 -1.56 1 -0.60 1.93 -1.08 2.06 -1.08 0.13 0 0.38 -0.15 0.55 -0.30 0.18 -0.18 1.06 -0.68 1.96 -1.13 3.04 -1.48 12.18 -5.88 12.94 -6.23 1.76 -0.80 3.62 -1.61 4.90 -2.14 0.75 -0.30 1.73 -0.70 2.14 -0.88 0.43 -0.18 1.26 -0.53 1.88 -0.75 1.18 -0.45 2.19 -0.88 3.27 -1.36 0.35 -0.15 0.98 -0.38 1.38 -0.50 0.43 -0.13 1.38 -0.48 2.14 -0.78 1.58 -0.63 2.56 -0.95 3.64 -1.26 0.43 -0.13 1.38 -0.45 2.14 -0.75 0.75 -0.30 1.78 -0.65 2.26 -0.75 0.48 -0.13 1.73 -0.50 2.76 -0.85 3.42 -1.18 4.15 -1.41 4.57 -1.41 0.25 0 0.80 -0.15 1.26 -0.35 0.45 -0.20 1.56 -0.55 2.46 -0.78 0.90 -0.23 2.21 -0.58 2.89 -0.75 1.23 -0.35 2.99 -0.78 5.85 -1.48 0.78 -0.20 2.34 -0.55 3.44 -0.78 1.11 -0.23 2.69 -0.58 3.52 -0.75 1.46 -0.33 3.62 -0.73 7.99 -1.48 5.12 -0.90 6.76 -1.16 9.22 -1.41 1.46 -0.15 3.49 -0.40 4.52 -0.55 1.03 -0.13 3.14 -0.35 4.65 -0.45 1.53 -0.13 4.17 -0.33 5.90 -0.48 11.28 -1.03 32.43 -0.60 44.46 0.85 1.58 0.18 4.02 0.48 5.40 0.63 6.08 0.65 17.76 2.81 23.99 4.40 0.75 0.20 2.29 0.58 3.39 0.85 1.11 0.25 2.91 0.73 4.02 1.03 1.11 0.33 2.41 0.65 2.89 0.75 0.48 0.10 1.16 0.30 1.51 0.45 0.35 0.13 1.36 0.45 2.26 0.68 0.90 0.23 2.01 0.58 2.46 0.78 0.45 0.20 0.98 0.35 1.18 0.35 0.20 0 0.73 0.15 1.18 0.35 0.45 0.18 1.46 0.53 2.21 0.75 0.75 0.23 1.78 0.58 2.26 0.75 0.48 0.18 1.33 0.48 1.88 0.63 0.55 0.18 1.43 0.48 1.96 0.68 0.50 0.20 1.36 0.50 1.88 0.70 1.18 0.45 3.54 1.38 4.20 1.66 0.28 0.10 1.13 0.45 1.88 0.75 0.75 0.28 1.63 0.63 1.96 0.78 0.30 0.13 0.80 0.33 1.13 0.45 0.63 0.25 2.66 1.13 3.82 1.66 2.06 0.90 6.61 3.06 13.69 6.51 1.53 0.75 3.67 1.91 5.78 3.12 0.75 0.45 1.68 0.93 2.09 1.08 0.38 0.15 0.68 0.35 0.68 0.43 0 0.10 0.48 0.40 1.08 0.68 0.58 0.28 1.11 0.55 1.18 0.63 0.08 0.08 1.51 0.98 3.22 2.01 1.71 1.03 3.39 2.09 3.77 2.31 0.38 0.25 0.85 0.53 1.06 0.63 1.06 0.48 11.20 7.46 12.38 8.49 0.23 0.20 0.48 0.38 0.55 0.38 0.23 0 6.28 4.57 6.36 4.80 0.05 0.13 0.18 0.23 0.30 0.23 0.20 0 1.31 0.88 2.29 1.81 0.28 0.25 0.60 0.45 0.73 0.45 0.15 0 0.25 0.08 0.25 0.20 0 0.10 0.85 0.85 1.88 1.68 1.03 0.83 1.88 1.58 1.88 1.68 0 0.13 0.13 0.20 0.25 0.20 0.15 0 0.53 0.25 0.83 0.55 0.30 0.33 1.28 1.18 2.19 1.93 0.90 0.75 2.06 1.81 2.59 2.34 0.53 0.53 1 0.95 1.08 0.95 0.15 0 11.76 11.41 12.38 12.16 0.23 0.28 0.93 1.03 1.61 1.71 0.65 0.68 1.18 1.28 1.18 1.33 0 0.08 0.43 0.55 0.95 1.08 0.53 0.50 1.58 1.66 2.34 2.56 1.46 1.73 2.29 2.69 3.12 3.64 0.28 0.30 0.95 1.11 1.51 1.76 0.55 0.68 1.13 1.33 1.26 1.48 0.15 0.15 1.38 1.76 2.74 3.54 1.36 1.81 2.56 3.32 2.69 3.34 0.13 0.05 0.23 0.25 0.23 0.45 0 0.20 0.10 0.35 0.20 0.35 0.10 0 0.40 0.35 0.65 0.78 0.25 0.45 0.65 0.98 0.88 1.21 0.23 0.23 0.78 0.95 1.21 1.58 1.43 2.11 1.96 2.84 2.16 2.91 0.10 0.05 0.18 0.25 0.18 0.43 0 0.18 0.08 0.38 0.20 0.43 0.28 0.13 1.31 1.66 1.31 1.96 0 0.13 0.08 0.25 0.20 0.25 0.10 0 0.45 0.50 0.80 1.13 0.35 0.63 0.70 1.13 0.80 1.13 0.13 0 0.20 0.13 0.20 0.25 0 0.23 0.88 1.63 1.26 2.01 0.25 0.25 0.78 1.13 0.90 1.58 0.10 0.23 0.25 0.43 0.35 0.43 0.10 0 0.33 0.33 0.50 0.75 0.18 0.43 0.40 0.75 0.53 0.75 0.13 0 0.23 0.10 0.23 0.23 0 0.23 1.73 3.29 2.01 3.54 0.08 0.08 0.35 0.58 0.63 1.13 0.28 0.55 0.58 1.06 0.68 1.13 0.10 0.08 0.30 0.43 0.45 0.75 0.13 0.35 0.48 0.98 0.75 1.38 0.28 0.43 0.63 1.03 0.75 1.38 0.15 0.33 0.35 0.68 0.45 0.75 0.10 0.08 0.90 1.53 1.78 3.27 0.85 1.73 2.06 4.07 2.61 5.17 1.53 2.96 4.30 8.97 5.65 12.16 0.13 0.35 0.50 1.21 0.80 1.88 0.83 1.93 0.93 2.16 1.48 3.52 1.18 3.04 1.86 4.80 2.29 6.13 0.25 0.78 0.70 2.03 1 2.79 0.30 0.75 0.63 1.73 0.75 2.14 0.20 0.73 0.50 1.63 1.16 3.39 0.18 0.48 0.65 2.06 1.11 3.52 0.43 1.46 0.93 3.09 1.11 3.64 0.20 0.55 0.53 1.73 0.78 2.64 0.23 0.90 0.58 2.21 0.75 2.89 0.20 0.70 0.53 1.93 0.73 2.76 0.20 0.83 0.53 2.19 0.75 3.01 0.20 0.83 0.55 2.36 0.78 3.39 0.23 1.03 0.53 2.39 0.68 3.01 0.15 0.63 0.35 1.71 0.45 2.39 0.10 0.70 0.30 1.76 0.45 2.39 1.11 4.77 2.59 16.30 3.44 26.88 0.55 6.78 0.55 26.78 0 33.36 -0.58 7.08 -1.43 14.80 -2.03 18.64 -2.41 15.15 -4.90 25.37 -9.55 39.31 -2.24 6.68 -2.86 8.47 -3.77 10.60 -0.20 0.43 -0.35 0.85 -0.35 0.95 0 0.10 -0.15 0.53 -0.35 0.95 -0.18 0.45 -0.75 1.83 -1.28 3.06 -0.83 2.03 -1.28 3.04 -2.54 5.85 -0.18 0.43 -0.50 1.18 -0.70 1.63 -0.73 1.61 -5.95 12.21 -6.43 12.99 -0.13 0.20 -0.53 1 -0.90 1.76 -0.38 0.75 -0.73 1.43 -0.83 1.51 -0.08 0.08 -0.40 0.63 -0.73 1.26 -0.33 0.63 -0.80 1.48 -1.06 1.88 -0.28 0.43 -0.60 0.98 -0.75 1.26 -0.15 0.28 -0.48 0.85 -0.75 1.26 -0.28 0.43 -0.60 0.98 -0.73 1.26 -0.13 0.28 -0.50 0.90 -0.83 1.38 -0.33 0.48 -0.68 1.06 -0.78 1.26 -0.23 0.43 -0.53 0.90 -1.53 2.51 -1.78 2.81 -2.54 3.89 -2.71 3.97 -0.13 0.05 -0.20 0.20 -0.20 0.33 0 0.38 -2.96 4.80 -3.32 4.95 -0.13 0.05 -0.20 0.20 -0.20 0.33 0 0.13 -0.15 0.43 -0.35 0.65 -0.20 0.25 -1.91 2.54 -3.82 5.10 -1.88 2.56 -3.59 4.77 -3.77 4.92 -0.20 0.15 -0.35 0.35 -0.35 0.45 0 0.08 -0.20 0.35 -0.43 0.63 -0.25 0.25 -1.13 1.31 -1.96 2.36 -0.83 1.06 -1.58 1.93 -1.68 1.93 -0.13 0 -0.20 0.13 -0.20 0.25 0 0.15 -0.20 0.45 -0.43 0.70 -0.25 0.25 -1.08 1.16 -1.83 2.03 -0.75 0.88 -1.51 1.73 -1.63 1.88 -0.15 0.15 -1.38 1.53 -2.74 3.04 -3.82 4.25 -15.15 15.42 -18.49 18.21 -0.35 0.30 -0.90 0.78 -1.26 1.08 -0.35 0.30 -1.36 1.16 -2.26 1.91 -0.90 0.73 -1.66 1.43 -1.71 1.56 -0.05 0.13 -0.25 0.23 -0.45 0.23 -0.20 0 -0.35 0.08 -0.35 0.20 0 0.10 -1.28 1.21 -2.81 2.44 -1.56 1.23 -2.89 2.34 -2.96 2.41 -0.08 0.08 -1.48 1.13 -3.14 2.34 -1.66 1.21 -3.22 2.34 -3.47 2.54 -0.23 0.20 -0.53 0.38 -0.65 0.38 -0.13 0 -0.28 0.08 -0.33 0.20 -0.08 0.20 -3.67 2.81 -3.87 2.81 -0.05 0 -0.25 0.13 -0.43 0.25 -0.80 0.68 -2.66 1.96 -3.44 2.41 -0.48 0.25 -0.93 0.53 -1 0.60 -0.38 0.38 -1.78 1.26 -2.01 1.26 -0.13 0 -0.25 0.10 -0.25 0.23 0 0.13 -0.23 0.33 -0.50 0.40 -0.28 0.08 -0.65 0.30 -0.80 0.48 -0.18 0.15 -0.73 0.50 -1.21 0.73 -0.48 0.25 -1.21 0.68 -1.63 0.93 -0.40 0.28 -0.93 0.58 -1.13 0.68 -0.20 0.08 -0.43 0.23 -0.50 0.33 -0.13 0.15 -3.24 2.01 -3.39 2.01 -0.05 0 -0.90 0.48 -1.93 1.08 -1 0.60 -2.01 1.16 -2.21 1.26 -0.20 0.10 -1.38 0.73 -2.64 1.43 -2.06 1.13 -6.20 3.22 -10.05 5.02 -3.97 1.88 -6.41 3.01 -6.53 3.01 -0.08 0 -0.83 0.33 -1.68 0.70 -0.88 0.40 -2.09 0.93 -2.71 1.18 -0.63 0.25 -1.63 0.68 -2.26 0.93 -0.63 0.28 -1.36 0.58 -1.63 0.70 -0.95 0.38 -2.76 1.06 -3.69 1.41 -2.06 0.75 -3.12 1.18 -3.92 1.51 -0.45 0.20 -0.98 0.35 -1.18 0.35 -0.20 0 -0.73 0.15 -1.18 0.35 -1.38 0.58 -2.76 1.08 -3.97 1.41 -0.63 0.18 -2.09 0.65 -3.27 1.03 -1.16 0.40 -2.31 0.73 -2.56 0.73 -0.23 0 -0.80 0.15 -1.26 0.35 -0.45 0.20 -1.56 0.55 -2.46 0.78 -0.90 0.23 -2.26 0.58 -3.01 0.80 -2.66 0.73 -3.92 1.06 -5.65 1.46 -0.95 0.23 -2.39 0.55 -3.14 0.75 -1.51 0.38 -4.07 0.90 -7.16 1.51 -1.11 0.23 -2.79 0.55 -3.77 0.75 -8.32 1.63 -20.80 3.06 -31.53 3.64 -5.58 0.30 -20.07 0.28 -25.87 -0.03z m30.02 -50.95 c11.76 -1.28 18.44 -2.29 23.74 -3.59 0.63 -0.15 1.63 -0.35 2.26 -0.45 0.63 -0.10 1.58 -0.30 2.14 -0.45 0.55 -0.15 1.81 -0.45 2.76 -0.68 1.63 -0.40 2.24 -0.55 5.53 -1.51 2.71 -0.78 6.58 -1.96 7.41 -2.26 0.48 -0.18 1.56 -0.53 2.39 -0.75 0.83 -0.25 1.61 -0.53 1.73 -0.65 0.15 -0.13 0.45 -0.23 0.70 -0.23 0.23 0 0.80 -0.15 1.26 -0.35 0.45 -0.20 1.31 -0.53 1.91 -0.75 0.58 -0.23 1.53 -0.58 2.14 -0.80 0.58 -0.23 1.36 -0.55 1.73 -0.75 0.35 -0.20 0.78 -0.35 0.93 -0.35 0.15 0 1.03 -0.35 1.96 -0.78 2.41 -1.08 3.04 -1.36 4.47 -1.98 1.63 -0.75 10.20 -4.97 10.68 -5.28 0.20 -0.15 0.78 -0.43 1.26 -0.63 0.48 -0.23 1.33 -0.65 1.88 -0.95 0.55 -0.33 1.58 -0.90 2.26 -1.28 2.69 -1.51 3.52 -2.03 3.59 -2.21 0.05 -0.10 0.20 -0.20 0.35 -0.20 0.15 0 0.75 -0.33 1.38 -0.75 0.60 -0.40 1.16 -0.75 1.21 -0.75 0.05 0 1.11 -0.68 2.34 -1.51 1.26 -0.83 2.39 -1.51 2.51 -1.51 0.15 0 0.30 -0.10 0.35 -0.20 0.05 -0.13 1.16 -0.93 2.46 -1.81 2.71 -1.83 10.63 -7.76 10.75 -8.06 0.05 -0.13 0.25 -0.23 0.45 -0.23 0.20 0 0.35 -0.08 0.35 -0.20 0 -0.10 0.85 -0.85 1.88 -1.68 1.03 -0.83 1.88 -1.58 1.88 -1.68 0 -0.13 0.18 -0.20 0.38 -0.20 0.20 0 0.38 -0.10 0.38 -0.20 0 -0.13 0.70 -0.80 1.58 -1.53 4.35 -3.67 11.88 -11.13 16.10 -15.95 0.98 -1.13 2.03 -2.29 2.34 -2.59 0.33 -0.30 0.58 -0.68 0.58 -0.83 0 -0.13 0.08 -0.25 0.20 -0.25 0.10 0 0.75 -0.70 1.43 -1.56 0.70 -0.85 1.53 -1.86 1.86 -2.21 0.30 -0.35 1.03 -1.28 1.58 -2.06 0.58 -0.80 1.13 -1.46 1.23 -1.46 0.13 0 0.23 -0.18 0.23 -0.38 0 -0.20 0.08 -0.38 0.20 -0.38 0.10 0 0.50 -0.50 0.88 -1.13 0.40 -0.63 0.83 -1.13 0.95 -1.13 0.13 0 0.23 -0.13 0.23 -0.28 0 -0.15 0.48 -0.90 1.08 -1.68 1 -1.33 2.74 -3.82 3.32 -4.77 0.15 -0.23 0.30 -0.48 0.38 -0.55 0.38 -0.38 1.26 -1.78 1.26 -2.01 0 -0.13 0.10 -0.25 0.23 -0.25 0.13 0 0.33 -0.23 0.40 -0.50 0.08 -0.28 0.30 -0.65 0.45 -0.83 0.40 -0.43 0.83 -1.13 1.36 -2.19 0.23 -0.48 0.50 -0.93 0.58 -1 0.10 -0.08 0.55 -0.80 1.03 -1.63 0.48 -0.83 0.98 -1.73 1.16 -2.01 0.18 -0.28 0.43 -0.73 0.58 -1 0.15 -0.28 0.48 -0.83 0.75 -1.26 0.25 -0.40 0.78 -1.38 1.16 -2.14 0.38 -0.75 0.73 -1.43 0.83 -1.51 0.18 -0.15 3.12 -6.08 4.42 -8.92 2.26 -4.95 2.49 -5.45 3.52 -8.16 0.23 -0.63 0.58 -1.46 0.78 -1.83 0.20 -0.40 0.35 -0.90 0.35 -1.16 0 -0.23 0.10 -0.53 0.23 -0.65 0.25 -0.28 1 -2.36 3.06 -8.54 1.73 -5.23 2.16 -6.76 3.84 -13.31 0.90 -3.54 1.81 -7.99 2.91 -14.14 0.35 -1.93 0.73 -5 1 -7.84 0.10 -1.18 0.33 -3.27 0.48 -4.65 1.43 -13.44 0.85 -32.58 -1.38 -46.35 -1.31 -8.01 -2.79 -14.87 -4.50 -20.73 -1.23 -4.22 -1.96 -6.63 -2.24 -7.41 -0.65 -1.76 -0.95 -2.66 -1.16 -3.39 -0.13 -0.40 -0.45 -1.38 -0.75 -2.14 -0.30 -0.75 -0.63 -1.66 -0.75 -2.01 -0.10 -0.35 -0.30 -0.90 -0.45 -1.26 -0.13 -0.35 -0.45 -1.13 -0.68 -1.76 -0.25 -0.63 -0.58 -1.46 -0.75 -1.88 -0.20 -0.40 -0.70 -1.66 -1.13 -2.76 -1.28 -3.22 -5.80 -12.54 -7.91 -16.33 -0.63 -1.11 -1.28 -2.29 -1.43 -2.64 -0.18 -0.35 -0.45 -0.78 -0.63 -0.95 -0.18 -0.18 -0.33 -0.43 -0.33 -0.55 0 -0.13 -0.30 -0.70 -0.70 -1.31 -1.06 -1.66 -1.26 -2.01 -1.73 -2.96 -0.23 -0.48 -0.48 -0.93 -0.55 -1 -0.28 -0.23 -1.28 -1.73 -1.28 -1.88 0 -0.13 -0.98 -1.61 -1.26 -1.88 -0.08 -0.08 -0.23 -0.33 -0.38 -0.55 -0.65 -1.13 -3.99 -5.85 -4.20 -5.93 -0.10 -0.05 -0.20 -0.20 -0.20 -0.33 0 -0.13 -0.15 -0.43 -0.35 -0.65 -0.20 -0.25 -1.13 -1.46 -2.03 -2.71 -0.93 -1.23 -1.76 -2.31 -1.83 -2.39 -0.10 -0.08 -0.73 -0.85 -1.43 -1.76 -0.68 -0.90 -1.36 -1.76 -1.51 -1.91 -0.13 -0.15 -0.70 -0.83 -1.26 -1.51 -0.90 -1.11 -1.61 -1.91 -3.39 -3.97 -3.92 -4.47 -12.56 -13.09 -16.30 -16.20 -0.58 -0.45 -1.36 -1.13 -1.73 -1.51 -1.71 -1.58 -2.86 -2.54 -3.09 -2.54 -0.13 0 -0.23 -0.10 -0.23 -0.20 0 -0.13 -0.68 -0.70 -1.51 -1.31 -0.83 -0.60 -1.51 -1.18 -1.51 -1.31 0 -0.10 -0.13 -0.20 -0.28 -0.20 -0.18 0 -0.43 -0.15 -0.58 -0.35 -0.15 -0.20 -1.91 -1.56 -3.92 -3.01 -2.01 -1.46 -3.77 -2.76 -3.94 -2.91 -0.18 -0.13 -0.40 -0.25 -0.55 -0.25 -0.13 0 -0.28 -0.08 -0.33 -0.18 -0.13 -0.28 -1.66 -1.33 -1.93 -1.33 -0.13 0 -0.28 -0.08 -0.33 -0.18 -0.13 -0.30 -1.66 -1.33 -1.96 -1.33 -0.13 0 -0.25 -0.10 -0.25 -0.20 0 -0.13 -0.25 -0.35 -0.55 -0.53 -0.33 -0.15 -0.88 -0.48 -1.23 -0.73 -0.38 -0.23 -1.26 -0.75 -1.96 -1.18 -0.70 -0.40 -1.28 -0.83 -1.28 -0.93 0 -0.13 -0.10 -0.20 -0.23 -0.20 -0.23 0 -3.29 -1.73 -3.54 -2.01 -0.15 -0.15 -2.31 -1.31 -5.40 -2.86 -1.11 -0.58 -2.06 -1.11 -2.14 -1.18 -0.13 -0.13 -6.38 -3.22 -10.10 -4.95 -0.93 -0.45 -1.86 -0.80 -2.03 -0.80 -0.18 0 -0.43 -0.10 -0.58 -0.23 -0.13 -0.13 -0.85 -0.48 -1.61 -0.78 -0.75 -0.30 -1.71 -0.70 -2.14 -0.88 -0.40 -0.18 -1.26 -0.53 -1.88 -0.75 -0.63 -0.23 -1.33 -0.53 -1.56 -0.65 -0.65 -0.33 -9.50 -3.34 -12.76 -4.32 -7.56 -2.31 -13.16 -3.69 -21.60 -5.30 -4.85 -0.93 -6.28 -1.16 -7.06 -1.16 -0.48 0 -1.76 -0.15 -2.86 -0.35 -4.85 -0.88 -16.71 -1.66 -25.25 -1.66 -12.01 0 -25.45 1.18 -35.30 3.14 -0.95 0.20 -2.71 0.53 -3.89 0.75 -1.18 0.23 -2.71 0.58 -3.42 0.78 -0.70 0.20 -1.48 0.35 -1.73 0.35 -0.25 0 -1.06 0.18 -1.81 0.38 -0.73 0.20 -1.93 0.53 -2.64 0.73 -3.99 1.03 -8.97 2.46 -10.30 2.96 -0.35 0.13 -1.03 0.33 -1.51 0.45 -0.45 0.13 -1.46 0.45 -2.21 0.75 -0.75 0.30 -1.71 0.63 -2.14 0.75 -1.21 0.33 -4.72 1.63 -6.78 2.51 -0.28 0.10 -1.13 0.45 -1.88 0.75 -1.78 0.70 -2.03 0.80 -6.15 2.64 -3.47 1.56 -7.41 3.47 -10.45 5.12 -1.21 0.63 -2.96 1.56 -3.89 2.03 -0.95 0.48 -1.88 1.03 -2.06 1.21 -0.18 0.15 -0.45 0.30 -0.60 0.30 -0.15 0 -0.48 0.15 -0.68 0.35 -0.23 0.18 -1.08 0.70 -1.91 1.16 -0.83 0.45 -1.56 0.90 -1.63 1 -0.08 0.10 -0.40 0.33 -0.75 0.50 -2.56 1.33 -17.66 11.91 -18.49 12.96 -0.15 0.20 -0.40 0.35 -0.58 0.35 -0.15 0 -0.28 0.10 -0.28 0.20 0 0.13 -0.53 0.58 -1.16 1.03 -0.63 0.45 -1.41 1.08 -1.73 1.38 -0.78 0.70 -3.29 2.91 -4.37 3.82 -4.15 3.54 -14.62 14.12 -17.51 17.69 -0.40 0.48 -0.98 1.13 -1.28 1.43 -0.33 0.30 -0.58 0.68 -0.58 0.83 0 0.13 -0.10 0.25 -0.20 0.25 -0.10 0 -0.65 0.58 -1.18 1.31 -0.55 0.70 -1.11 1.41 -1.26 1.56 -0.13 0.15 -0.80 1 -1.51 1.91 -0.68 0.90 -1.38 1.78 -1.56 1.96 -0.18 0.20 -0.68 0.88 -1.13 1.51 -0.43 0.65 -0.88 1.23 -1 1.26 -0.10 0.05 -0.20 0.20 -0.20 0.33 0 0.13 -0.18 0.43 -0.40 0.65 -0.20 0.25 -0.93 1.26 -1.61 2.21 -0.68 0.98 -1.36 1.88 -1.51 2.06 -0.13 0.18 -0.25 0.38 -0.25 0.48 0 0.08 -0.33 0.58 -0.70 1.08 -0.63 0.78 -2.09 3.04 -2.94 4.50 -1.26 2.14 -2.51 4.22 -2.64 4.32 -0.08 0.08 -0.35 0.58 -0.63 1.13 -0.28 0.55 -0.58 1.06 -0.68 1.13 -0.10 0.08 -0.30 0.43 -0.43 0.75 -0.15 0.35 -0.53 1.03 -0.80 1.51 -0.30 0.48 -0.83 1.46 -1.18 2.14 -0.35 0.70 -0.70 1.31 -0.78 1.38 -0.10 0.08 -0.85 1.61 -1.73 3.39 -2.89 5.90 -4.32 9.02 -4.82 10.43 -0.33 0.88 -0.68 1.76 -1.36 3.34 -0.20 0.43 -0.43 1.08 -0.53 1.43 -0.10 0.35 -0.28 0.75 -0.38 0.88 -0.10 0.15 -0.25 0.48 -0.33 0.75 -0.08 0.28 -0.38 1.13 -0.68 1.88 -0.73 1.91 -3.59 10.55 -4.15 12.56 -0.23 0.90 -0.53 1.91 -0.65 2.26 -0.35 0.95 -1.03 3.52 -1.23 4.65 -0.10 0.55 -0.33 1.58 -0.50 2.26 -0.78 3.24 -1 4.15 -1.36 6.03 -1.18 6.18 -1.81 10.48 -2.84 19.85 -0.35 3.32 -0.45 6.23 -0.45 16.45 0 13.79 0.10 15.22 1.91 28.39 0.80 5.83 2.96 16.03 4.40 20.57 0.20 0.63 0.35 1.33 0.35 1.56 0 0.25 0.15 0.83 0.35 1.28 0.20 0.45 0.53 1.51 0.75 2.34 0.25 0.83 0.58 1.91 0.75 2.39 0.55 1.46 0.93 2.59 1.16 3.39 0.13 0.43 0.63 1.88 1.13 3.27 0.50 1.38 1 2.81 1.11 3.17 0.13 0.35 0.33 0.85 0.48 1.13 0.23 0.40 0.75 1.68 2.11 5.12 0.15 0.35 0.43 1.03 0.63 1.51 0.23 0.48 0.55 1.23 0.73 1.63 0.63 1.48 5.20 10.80 5.35 10.93 0.08 0.08 0.58 0.98 1.11 2.01 0.55 1.03 1.18 2.24 1.46 2.64 0.25 0.43 0.58 0.98 0.73 1.26 0.15 0.28 0.48 0.85 0.75 1.26 0.28 0.43 0.60 0.98 0.73 1.26 0.13 0.28 0.50 0.90 0.83 1.38 0.30 0.48 0.80 1.31 1.08 1.83 0.28 0.50 0.58 0.93 0.68 0.93 0.13 0 0.20 0.13 0.20 0.28 0 0.15 0.75 1.41 1.68 2.79 0.95 1.38 1.83 2.69 1.96 2.91 0.15 0.23 0.38 0.53 0.53 0.68 0.15 0.13 0.48 0.60 0.73 1 0.98 1.61 7.96 10.75 8.82 11.56 0.13 0.15 0.70 0.83 1.23 1.51 0.55 0.70 1.23 1.51 1.56 1.81 0.33 0.30 0.58 0.63 0.58 0.70 0 0.08 0.25 0.40 0.58 0.70 0.33 0.30 1.48 1.58 2.61 2.81 2.71 3.06 7.91 8.26 11.13 11.15 1.46 1.31 2.89 2.64 3.19 2.96 0.30 0.33 0.63 0.58 0.73 0.58 0.10 0 0.40 0.25 0.70 0.58 0.30 0.30 1.11 1 1.78 1.56 0.70 0.55 1.38 1.11 1.53 1.26 0.98 0.90 2.31 1.93 7.01 5.48 2.91 2.21 5.45 4.07 5.65 4.15 0.20 0.08 0.43 0.20 0.50 0.28 0.30 0.35 1.76 1.28 2.01 1.28 0.13 0 0.25 0.13 0.25 0.25 0 0.15 0.25 0.38 0.58 0.50 0.58 0.25 1.48 0.78 1.68 1 0.25 0.25 2.36 1.61 3.01 1.91 0.40 0.20 1.78 1.13 2.01 1.36 0.08 0.08 0.58 0.35 1.13 0.63 0.55 0.28 1.06 0.58 1.13 0.65 0.15 0.15 2.61 1.58 4.40 2.51 4.50 2.39 9.37 4.87 11.18 5.68 0.63 0.30 1.81 0.83 2.64 1.21 0.83 0.38 1.86 0.85 2.26 1.03 0.43 0.18 1.53 0.68 2.46 1.11 0.95 0.40 1.78 0.75 1.86 0.75 0.08 0 0.48 0.15 0.90 0.35 0.85 0.35 2.46 0.98 4.07 1.58 0.55 0.20 1.38 0.53 1.83 0.73 0.45 0.20 1 0.35 1.21 0.35 0.23 0 0.70 0.15 1.06 0.35 0.38 0.20 1.63 0.65 2.81 1 1.18 0.35 3.04 0.95 4.15 1.31 1.11 0.35 2.41 0.75 2.89 0.88 0.48 0.10 1.68 0.43 2.64 0.70 0.98 0.28 2.71 0.75 3.89 1.03 1.18 0.30 2.76 0.68 3.52 0.88 2.14 0.53 7.64 1.63 11.05 2.24 5.35 0.93 11.53 1.71 17.33 2.19 1.86 0.15 3.57 0.30 3.77 0.35 1.03 0.23 26.28 -0.08 28.76 -0.35z"/>
  <path d="M124.55 331.10 c0.23 -0.40 0.50 -0.75 0.63 -0.75 0.10 0 0.18 -0.15 0.18 -0.35 0 -0.20 0.08 -0.40 0.20 -0.45 0.10 -0.03 0.80 -1 1.56 -2.14 0.75 -1.16 1.46 -2.09 1.56 -2.09 0.13 0 0.20 -0.13 0.20 -0.28 0 -0.15 0.35 -0.70 0.75 -1.23 0.43 -0.53 0.75 -1.03 0.75 -1.13 0 -0.08 0.15 -0.33 0.33 -0.50 0.15 -0.18 0.70 -0.93 1.18 -1.63 0.48 -0.70 1.51 -2.16 2.26 -3.22 0.75 -1.08 2.01 -2.86 2.76 -3.99 0.75 -1.16 1.46 -2.09 1.56 -2.09 0.13 0 0.20 -0.13 0.20 -0.28 0 -0.30 1.53 -2.56 1.83 -2.69 0.10 -0.05 0.18 -0.20 0.18 -0.35 0 -0.15 0.35 -0.68 0.75 -1.21 0.43 -0.53 0.75 -1.03 0.75 -1.11 0 -0.15 0.58 -0.90 1.21 -1.53 0.15 -0.20 0.30 -0.43 0.30 -0.50 0 -0.10 0.35 -0.60 0.75 -1.13 0.43 -0.53 0.75 -1.03 0.75 -1.13 0 -0.08 0.15 -0.33 0.33 -0.50 0.15 -0.18 0.70 -0.93 1.18 -1.63 1.41 -2.06 3.22 -4.62 3.52 -4.95 0.13 -0.18 0.25 -0.38 0.25 -0.43 0 -0.08 0.63 -1.03 1.38 -2.09 0.75 -1.08 1.73 -2.51 2.19 -3.17 0.45 -0.68 0.98 -1.38 1.16 -1.56 0.15 -0.18 0.30 -0.43 0.30 -0.50 0 -0.10 0.35 -0.60 0.75 -1.13 0.43 -0.53 0.75 -1.06 0.75 -1.21 0 -0.15 0.08 -0.30 0.20 -0.35 0.25 -0.13 2.81 -3.69 2.81 -3.94 0 -0.13 0.10 -0.28 0.23 -0.33 0.10 -0.03 1.43 -1.88 2.91 -4.09 3.54 -5.25 3.74 -5.50 3.97 -5.60 0.10 -0.05 0.18 -0.20 0.18 -0.33 0 -0.15 0.13 -0.38 0.25 -0.55 0.15 -0.18 0.70 -0.93 1.26 -1.68 0.55 -0.75 1.11 -1.51 1.26 -1.68 0.13 -0.18 0.25 -0.40 0.25 -0.55 0 -0.13 0.08 -0.28 0.20 -0.33 0.28 -0.13 1.31 -1.66 1.31 -1.96 0 -0.13 0.08 -0.25 0.20 -0.25 0.10 0 1 -1.21 2.01 -2.69 4.45 -6.56 6.15 -8.99 6.36 -9.07 0.13 -0.05 0.23 -0.20 0.23 -0.33 0 -0.28 1.06 -1.81 1.33 -1.93 0.10 -0.05 0.18 -0.25 0.18 -0.43 0 -0.18 0.08 -0.38 0.20 -0.43 0.18 -0.08 0.80 -0.90 2.14 -2.91 0.43 -0.65 0.83 -1.23 0.90 -1.31 0.20 -0.18 0.93 -1.23 3.94 -5.70 1.48 -2.19 2.76 -4.02 2.84 -4.09 0.08 -0.08 0.28 -0.30 0.40 -0.53 0.90 -1.51 2.54 -3.74 2.69 -3.74 0.10 0 0.20 -0.13 0.20 -0.28 0 -0.15 0.35 -0.70 0.75 -1.23 0.43 -0.53 0.75 -1.06 0.75 -1.21 0 -0.15 0.08 -0.30 0.20 -0.35 0.20 -0.10 0.55 -0.58 3.09 -4.35 1.03 -1.53 1.98 -2.89 2.11 -3.06 0.15 -0.15 0.65 -0.88 1.13 -1.58 1.41 -2.06 3.22 -4.62 3.52 -4.95 0.13 -0.18 0.25 -0.38 0.25 -0.48 0 -0.08 0.35 -0.58 0.75 -1.11 0.43 -0.53 0.75 -1.06 0.75 -1.21 0 -0.15 0.08 -0.30 0.20 -0.35 0.25 -0.13 2.81 -3.69 2.81 -3.94 0 -0.13 0.08 -0.28 0.20 -0.33 0.20 -0.10 0.48 -0.45 3.39 -4.77 2.49 -3.69 3.27 -4.80 3.47 -4.97 0.08 -0.08 0.48 -0.65 0.90 -1.31 1.33 -2.01 1.96 -2.84 2.16 -2.91 0.10 -0.05 0.18 -0.20 0.18 -0.35 0 -0.15 0.35 -0.68 0.75 -1.21 0.43 -0.53 0.75 -1.08 0.75 -1.23 0 -0.15 0.10 -0.28 0.20 -0.28 0.10 0 0.93 -1.11 1.81 -2.44 0.88 -1.36 1.66 -2.51 1.73 -2.59 0.33 -0.30 1.28 -1.76 1.28 -1.98 0 -0.13 0.10 -0.28 0.23 -0.33 0.13 -0.03 0.95 -1.16 1.86 -2.49 2.24 -3.37 2.79 -4.09 3.01 -4.20 0.10 -0.05 0.18 -0.20 0.18 -0.33 0 -0.15 0.13 -0.38 0.25 -0.55 0.15 -0.18 0.70 -0.93 1.26 -1.68 0.55 -0.75 1.11 -1.51 1.26 -1.68 0.13 -0.18 0.25 -0.40 0.25 -0.55 0 -0.13 0.08 -0.28 0.20 -0.33 0.28 -0.13 1.31 -1.66 1.31 -1.96 0 -0.13 0.10 -0.25 0.23 -0.25 0.13 0 0.50 -0.45 0.83 -1 0.33 -0.55 1.36 -2.14 2.31 -3.52 l1.73 -2.51 25.77 0.03 c14.17 0 25.62 0.08 25.47 0.15 -0.18 0.05 -0.33 0.23 -0.33 0.38 0 0.15 -0.33 0.68 -0.75 1.21 -0.40 0.53 -0.75 1.06 -0.75 1.21 0 0.15 -0.10 0.30 -0.23 0.35 -0.10 0.05 -1.31 1.71 -2.66 3.72 -1.33 2.01 -2.51 3.69 -2.61 3.77 -0.08 0.08 -0.78 1.06 -1.53 2.21 -0.75 1.13 -1.46 2.06 -1.56 2.06 -0.13 0 -0.20 0.13 -0.20 0.28 0 0.15 -0.33 0.70 -0.75 1.23 -0.40 0.53 -0.75 1.03 -0.75 1.11 0 0.10 -0.13 0.30 -0.25 0.48 -0.15 0.18 -0.83 1.11 -1.51 2.06 -0.68 0.98 -1.71 2.39 -2.26 3.17 -0.55 0.78 -1 1.56 -1 1.71 0 0.15 -0.10 0.28 -0.20 0.28 -0.10 0 -0.88 1.03 -1.68 2.26 -0.80 1.23 -1.58 2.26 -1.68 2.26 -0.10 0 -0.20 0.13 -0.20 0.25 0 0.30 -1.03 1.83 -1.31 1.96 -0.13 0.05 -0.20 0.20 -0.20 0.33 0 0.15 -0.13 0.38 -0.25 0.55 -0.15 0.18 -0.70 0.93 -1.26 1.68 -0.55 0.75 -1.11 1.51 -1.26 1.68 -0.13 0.18 -0.25 0.40 -0.25 0.55 0 0.13 -0.08 0.28 -0.18 0.33 -0.23 0.10 -0.63 0.65 -3.52 4.92 -2.91 4.32 -3.19 4.67 -3.39 4.77 -0.13 0.05 -0.20 0.20 -0.20 0.33 0 0.15 -0.13 0.38 -0.25 0.55 -0.15 0.18 -0.70 0.93 -1.26 1.68 -0.55 0.75 -1.11 1.51 -1.26 1.68 -0.13 0.18 -0.25 0.40 -0.25 0.55 0 0.13 -0.08 0.28 -0.18 0.33 -0.23 0.08 -0.35 0.28 -2.96 4.09 -0.95 1.38 -1.81 2.56 -1.93 2.59 -0.10 0.05 -0.20 0.20 -0.20 0.33 0 0.13 -0.63 1.11 -1.38 2.16 -0.75 1.08 -1.73 2.51 -2.19 3.17 -0.45 0.68 -0.98 1.38 -1.13 1.56 -0.18 0.18 -0.33 0.40 -0.33 0.50 0 0.10 -0.15 0.33 -0.30 0.50 -0.18 0.18 -0.73 0.93 -1.21 1.63 -0.48 0.70 -1.36 1.96 -1.93 2.79 -0.60 0.80 -1.83 2.59 -2.76 3.92 -0.90 1.36 -1.76 2.51 -1.88 2.54 -0.10 0.05 -0.20 0.20 -0.20 0.33 0 0.25 -1.56 2.59 -1.81 2.69 -0.13 0.05 -0.20 0.25 -0.20 0.43 0 0.18 -0.08 0.38 -0.18 0.43 -0.23 0.08 -1.33 1.61 -1.33 1.83 0 0.08 -0.20 0.35 -0.43 0.60 -0.83 0.90 -1.08 1.26 -1.08 1.51 0 0.13 -0.08 0.28 -0.18 0.33 -0.30 0.13 -1.33 1.66 -1.33 1.96 0 0.13 -0.10 0.25 -0.20 0.25 -0.10 0 -0.88 1.03 -1.68 2.26 -0.80 1.26 -1.58 2.26 -1.68 2.26 -0.10 0 -0.20 0.13 -0.20 0.28 0 0.15 -0.33 0.70 -0.75 1.23 -0.40 0.53 -0.75 1.03 -0.75 1.11 0 0.18 -0.30 0.60 -1.06 1.43 -0.25 0.25 -0.45 0.55 -0.45 0.63 0 0.20 -1.61 2.46 -1.81 2.56 -0.13 0.05 -0.20 0.20 -0.20 0.35 0 0.15 -0.33 0.68 -0.75 1.21 -0.40 0.53 -0.75 1.06 -0.75 1.21 0 0.15 -0.10 0.30 -0.23 0.35 -0.35 0.13 -2.59 3.49 -2.44 3.64 0.08 0.08 0.20 -0.05 0.30 -0.28 0.08 -0.23 0.30 -0.40 0.50 -0.40 0.20 0 0.35 -0.08 0.35 -0.18 0 -0.13 0.50 -0.53 1.13 -0.90 0.63 -0.40 1.13 -0.83 1.13 -0.95 0 -0.13 0.13 -0.23 0.28 -0.23 0.25 0 1.91 -1.18 2.66 -1.91 0.18 -0.18 0.70 -0.55 1.21 -0.85 0.48 -0.30 0.88 -0.65 0.88 -0.78 0 -0.13 0.15 -0.23 0.35 -0.23 0.20 0 0.40 -0.08 0.45 -0.18 0.05 -0.13 1.11 -0.93 2.34 -1.83 1.26 -0.88 5.63 -4.12 9.72 -7.21 4.12 -3.09 7.54 -5.60 7.59 -5.60 0.05 0 0.38 -0.23 0.70 -0.50 1.46 -1.23 4.97 -3.77 5.23 -3.77 0.13 0 0.25 -0.10 0.25 -0.23 0 -0.13 0.50 -0.55 1.13 -0.95 0.63 -0.38 1.13 -0.78 1.13 -0.88 0 -0.13 0.18 -0.20 0.38 -0.20 0.20 0 0.38 -0.10 0.38 -0.23 0 -0.13 0.50 -0.55 1.13 -0.95 0.63 -0.38 1.13 -0.78 1.13 -0.88 0 -0.13 0.18 -0.20 0.38 -0.20 0.20 0 0.38 -0.08 0.38 -0.18 0 -0.13 0.50 -0.53 1.13 -0.90 0.63 -0.40 1.13 -0.83 1.13 -0.95 0 -0.13 0.10 -0.23 0.25 -0.23 0.23 0 0.88 -0.48 1.63 -1.18 0.20 -0.18 0.45 -0.33 0.60 -0.33 0.15 0 0.28 -0.10 0.28 -0.25 0 -0.13 0.18 -0.25 0.38 -0.25 0.20 0 0.38 -0.08 0.38 -0.18 0 -0.13 0.50 -0.53 1.13 -0.90 0.63 -0.40 1.13 -0.83 1.13 -0.95 0 -0.13 0.18 -0.23 0.38 -0.23 0.20 0 0.38 -0.08 0.38 -0.18 0 -0.13 0.50 -0.53 1.13 -0.90 0.63 -0.40 1.13 -0.83 1.13 -0.95 0 -0.13 0.13 -0.23 0.28 -0.23 0.28 0 4.20 -2.89 4.65 -3.42 0.15 -0.20 0.40 -0.35 0.55 -0.35 0.15 0 0.30 -0.10 0.35 -0.20 0.05 -0.10 0.48 -0.48 0.95 -0.80 0.48 -0.33 4.57 -3.34 9.07 -6.71 l8.21 -6.10 16.40 0 16.43 0 -1 0.68 c-0.55 0.38 -1.11 0.80 -1.26 0.95 -0.13 0.18 -1.43 1.18 -2.89 2.26 -1.46 1.08 -2.76 2.11 -2.91 2.29 -0.15 0.20 -0.40 0.35 -0.58 0.35 -0.15 0 -0.28 0.08 -0.28 0.20 0 0.10 -0.50 0.50 -1.13 0.88 -0.63 0.40 -1.13 0.83 -1.13 0.95 0 0.13 -0.10 0.23 -0.25 0.23 -0.13 0 -0.45 0.20 -0.73 0.45 -0.25 0.23 -1.61 1.28 -3.01 2.31 -1.38 1.03 -2.54 1.96 -2.54 2.06 0 0.10 -0.18 0.20 -0.38 0.20 -0.20 0 -0.38 0.08 -0.38 0.20 0 0.10 -0.50 0.50 -1.13 0.88 -0.63 0.40 -1.13 0.83 -1.13 0.95 0 0.13 -0.18 0.23 -0.38 0.23 -0.20 0 -0.38 0.10 -0.38 0.23 0 0.13 -0.40 0.48 -0.88 0.78 -0.50 0.30 -1.03 0.68 -1.21 0.85 -0.15 0.15 -1.03 0.85 -1.93 1.53 -0.90 0.68 -1.68 1.31 -1.76 1.38 -0.08 0.08 -0.75 0.58 -1.51 1.11 -0.75 0.55 -1.41 1.08 -1.46 1.21 -0.05 0.10 -0.20 0.20 -0.35 0.20 -0.15 0 -0.40 0.15 -0.55 0.33 -0.15 0.20 -2.14 1.73 -4.42 3.44 -2.29 1.71 -4.25 3.24 -4.40 3.39 -0.13 0.18 -0.65 0.58 -1.13 0.90 -0.48 0.33 -1.03 0.73 -1.21 0.90 -0.18 0.18 -0.83 0.68 -1.46 1.13 l-1.16 0.83 8.11 0.15 c5.98 0.13 8.57 0.28 9.70 0.55 4.50 1.11 6.78 2.64 7.99 5.35 0.53 1.21 0.63 1.81 0.63 3.87 0 2.06 -0.13 2.79 -0.78 4.80 -0.45 1.31 -1 2.76 -1.26 3.24 -0.28 0.48 -0.48 1 -0.48 1.18 0 0.15 -0.08 0.33 -0.18 0.38 -0.13 0.05 -0.53 0.75 -0.95 1.56 -0.93 1.86 -5.33 8.49 -5.70 8.64 -0.10 0.05 -0.20 0.20 -0.20 0.35 0 0.15 -0.33 0.68 -0.75 1.21 -0.40 0.53 -0.75 1.03 -0.75 1.11 0 0.08 -0.18 0.35 -0.40 0.60 -0.38 0.43 -3.19 4.37 -4.87 6.83 -0.48 0.70 -1.03 1.46 -1.18 1.63 -0.18 0.18 -0.33 0.40 -0.33 0.50 0 0.10 -0.15 0.30 -0.30 0.50 -0.18 0.18 -0.83 1.08 -1.46 1.98 -0.63 0.93 -1.91 2.79 -2.89 4.17 -0.95 1.36 -2.16 3.06 -2.64 3.77 -0.48 0.70 -1.03 1.46 -1.18 1.63 -0.18 0.18 -0.33 0.40 -0.33 0.50 0 0.08 -0.13 0.28 -0.25 0.45 -0.15 0.18 -0.80 1.06 -1.46 1.98 -2.81 3.97 -4.47 6.31 -4.70 6.58 -0.30 0.38 -0.88 1.36 -0.88 1.53 0 0.08 13.11 0.13 29.14 0.13 21.13 0 29.14 0.08 29.14 0.28 0 0.15 -0.33 0.70 -0.75 1.23 -0.40 0.53 -0.75 1.08 -0.75 1.23 0 0.15 -0.10 0.28 -0.20 0.28 -0.13 0 -0.60 0.53 -1.08 1.21 -0.45 0.65 -1.21 1.56 -1.66 2.01 -0.45 0.45 -0.83 0.93 -0.83 1.06 0 0.15 -0.08 0.25 -0.20 0.25 -0.10 0 -0.88 0.68 -1.76 1.51 -0.85 0.80 -2.09 1.86 -2.69 2.29 -0.63 0.45 -1.13 0.90 -1.13 1.03 0 0.10 -0.13 0.20 -0.28 0.20 -0.15 0 -0.70 0.30 -1.21 0.70 -1 0.75 -1.68 1.18 -2.41 1.56 -0.28 0.15 -0.83 0.48 -1.26 0.75 -2.11 1.36 -8.24 3.97 -11.05 4.75 -1.26 0.33 -3.42 0.90 -4.90 1.28 -0.60 0.18 -2.59 0.53 -4.40 0.78 -3.06 0.43 -5.30 0.48 -34.79 0.48 -27.86 0 -31.78 -0.05 -33.79 -0.40 -4.75 -0.85 -7.51 -2.44 -8.94 -5.12 -0.55 -1 -0.60 -1.43 -0.60 -4.15 0.03 -3.06 0.05 -3.27 1.48 -7.03 0.55 -1.46 1.78 -3.79 2.84 -5.45 0.60 -0.93 1.08 -1.81 1.08 -1.93 0 -0.15 0.13 -0.28 0.25 -0.28 0.15 0 0.25 -0.13 0.25 -0.25 0 -0.15 0.13 -0.40 0.25 -0.58 0.63 -0.75 2.76 -3.69 2.76 -3.82 0 -0.08 0.18 -0.33 0.40 -0.55 0.20 -0.25 0.93 -1.23 1.61 -2.21 0.68 -0.95 1.36 -1.88 1.51 -2.06 0.13 -0.18 0.25 -0.38 0.25 -0.45 0 -0.08 0.13 -0.28 0.25 -0.45 0.15 -0.18 0.83 -1.08 1.51 -2.06 0.68 -0.95 1.38 -1.93 1.56 -2.14 0.18 -0.23 1.06 -1.46 1.93 -2.76 0.88 -1.31 1.68 -2.41 1.81 -2.46 0.13 -0.05 0.23 -0.20 0.23 -0.35 0 -0.15 0.35 -0.68 0.75 -1.21 0.43 -0.53 0.75 -1.03 0.75 -1.11 0 -0.08 0.18 -0.35 0.40 -0.58 0.20 -0.25 1.23 -1.63 2.26 -3.09 1.03 -1.46 2.03 -2.84 2.24 -3.09 0.20 -0.23 0.38 -0.50 0.38 -0.58 0 -0.08 0.33 -0.58 0.73 -1.08 0.65 -0.83 1.91 -2.64 3.89 -5.55 0.40 -0.63 0.85 -1.16 0.95 -1.21 0.10 -0.05 0.20 -0.25 0.20 -0.45 0 -0.20 0.10 -0.35 0.20 -0.35 0.13 0 0.35 -0.25 0.50 -0.55 0.18 -0.33 0.50 -0.85 0.73 -1.21 0.58 -0.80 0.38 -0.68 -3.14 1.93 -1.53 1.16 -2.86 2.09 -2.94 2.09 -0.08 0 -0.33 0.18 -0.55 0.40 -0.25 0.20 -1.23 0.93 -2.21 1.61 -0.95 0.68 -1.88 1.36 -2.06 1.51 -0.18 0.13 -0.38 0.25 -0.45 0.25 -0.08 0 -0.28 0.13 -0.45 0.25 -0.18 0.15 -1.08 0.83 -2.06 1.51 -0.95 0.70 -1.88 1.36 -2.06 1.48 -0.15 0.15 -1.91 1.36 -3.89 2.69 -1.96 1.33 -3.62 2.51 -3.67 2.64 -0.05 0.13 -0.20 0.23 -0.33 0.23 -0.28 0 -1.81 1.06 -1.93 1.33 -0.05 0.10 -0.20 0.18 -0.33 0.18 -0.15 0 -0.38 0.13 -0.55 0.25 -0.18 0.15 -0.93 0.70 -1.68 1.26 -0.75 0.55 -1.51 1.11 -1.68 1.26 -0.18 0.13 -0.40 0.25 -0.55 0.25 -0.13 0 -0.28 0.08 -0.33 0.20 -0.10 0.23 -1.63 1.31 -1.83 1.31 -0.10 0 -0.30 0.15 -0.48 0.33 -0.18 0.18 -2.14 1.53 -4.32 3.01 -2.19 1.51 -5.45 3.74 -7.26 5 -1.78 1.23 -3.57 2.44 -3.94 2.66 -0.40 0.25 -0.70 0.50 -0.70 0.63 0 0.10 -0.13 0.18 -0.28 0.18 -0.15 0 -0.70 0.35 -1.23 0.75 -0.53 0.43 -1.03 0.75 -1.11 0.75 -0.18 0 -0.60 0.30 -1.43 1.08 -0.25 0.23 -0.53 0.43 -0.60 0.43 -0.30 0 -4.72 3.04 -4.85 3.34 -0.05 0.10 -0.20 0.18 -0.35 0.18 -0.15 0 -0.68 0.35 -1.21 0.75 -0.53 0.43 -1.06 0.75 -1.21 0.75 -0.15 0 -0.30 0.08 -0.35 0.20 -0.13 0.28 -1.66 1.31 -1.96 1.31 -0.13 0 -0.25 0.10 -0.25 0.20 0 0.10 -0.75 0.70 -1.68 1.31 -0.95 0.60 -1.73 1.21 -1.78 1.31 -0.05 0.10 -0.25 0.20 -0.43 0.20 -0.18 0 -0.38 0.08 -0.43 0.20 -0.13 0.28 -1.66 1.31 -1.96 1.31 -0.13 0 -0.25 0.10 -0.25 0.25 0 0.13 -0.43 0.48 -0.93 0.75 -1.11 0.58 -1.91 1.08 -2.09 1.26 -0.38 0.38 -1.78 1.26 -2.01 1.26 -0.13 0 -0.25 0.10 -0.25 0.20 0 0.13 -0.25 0.35 -0.55 0.53 -0.75 0.38 -1.26 0.70 -3.09 1.91 -1.71 1.13 -2.29 1.51 -3.01 1.88 -0.28 0.15 -0.83 0.48 -1.26 0.75 -0.40 0.25 -2.44 1.33 -4.52 2.36 -5.10 2.54 -8.11 3.44 -14.52 4.42 -2.89 0.45 -4.60 0.50 -15.63 0.50 l-12.41 0 0.43 -0.75z"/>
  <path d="M337.13 287.24 c-3.44 -0.85 -5.60 -1.78 -7.94 -3.39 -1.28 -0.88 -4.07 -3.59 -4.87 -4.75 -0.33 -0.48 -0.68 -0.93 -0.75 -1 -0.20 -0.18 -1.63 -3.19 -2.09 -4.40 -2.14 -5.70 -1.26 -12.86 2.19 -17.96 0.40 -0.63 0.83 -1.16 0.95 -1.21 0.10 -0.05 0.20 -0.20 0.20 -0.30 0 -0.35 3.17 -3.42 4.40 -4.27 4.65 -3.22 10.75 -4.50 15.95 -3.37 1.03 0.23 2.11 0.50 2.39 0.60 1.18 0.48 3.04 1.31 3.39 1.53 0.20 0.13 0.63 0.33 0.93 0.45 0.70 0.33 3.77 2.91 4.60 3.92 0.35 0.40 0.83 0.93 1.08 1.18 0.23 0.25 0.43 0.58 0.43 0.70 0 0.15 0.08 0.25 0.20 0.25 0.33 0 1.58 2.36 2.36 4.40 1 2.64 1.23 3.87 1.23 7.29 0 3.42 -0.23 4.65 -1.23 7.29 -0.85 2.26 -2.66 5.40 -3.09 5.40 -0.13 0 -0.23 0.10 -0.23 0.23 0 0.53 -4.85 4.80 -5.45 4.80 -0.18 0 -0.33 0.10 -0.33 0.23 0 0.13 -0.25 0.33 -0.55 0.40 -0.33 0.10 -1.08 0.40 -1.71 0.68 -1.81 0.80 -2.03 0.88 -4.02 1.31 -2.26 0.50 -6.10 0.50 -8.04 0z"/>
 </g>
</svg>